<?xml version="1.0" encoding="UTF-8"?>
<svg width="150" height="225" viewBox="0 0 150 225" fill="none" xmlns="http://www.w3.org/2000/svg">
  <!-- 背景 -->
  <rect width="150" height="225" fill="#CA8A04"/>
  
  <!-- 书本图标 -->
  <path d="M35 82.5C35 77.8056 38.8056 74 43.5 74H106.5C111.194 74 115 77.8056 115 82.5V142.5C115 147.194 111.194 151 106.5 151H43.5C38.8056 151 35 147.194 35 142.5V82.5Z" fill="white" fill-opacity="0.2"/>
  
  <!-- 历史图标 - 古代建筑 -->
  <rect x="60" y="120" width="30" height="25" fill="white"/>
  <rect x="55" y="115" width="40" height="5" fill="white"/>
  
  <!-- 柱子 -->
  <rect x="60" y="95" width="5" height="25" fill="white"/>
  <rect x="70" y="95" width="5" height="25" fill="white"/>
  <rect x="80" y="95" width="5" height="25" fill="white"/>
  <rect x="90" y="95" width="5" height="25" fill="white"/>
  
  <!-- 柱顶 -->
  <rect x="55" y="90" width="40" height="5" fill="white"/>
  
  <!-- 时钟图标 - 代表历史 -->
  <circle cx="75" cy="75" r="15" stroke="white" stroke-width="2" fill="none"/>
  <line x1="75" y1="75" x2="75" y2="65" stroke="white" stroke-width="2"/>
  <line x1="75" y1="75" x2="82" y2="80" stroke="white" stroke-width="2"/>
  
  <!-- 书本标题文本 -->
  <text x="75" y="170" font-family="Arial" font-size="16" font-weight="bold" fill="white" text-anchor="middle">人类简史</text>
  <text x="75" y="190" font-family="Arial" font-size="12" fill="white" text-anchor="middle">尤瓦尔·赫拉利</text>
</svg> 