<?xml version="1.0" encoding="UTF-8"?>
<svg width="150" height="225" viewBox="0 0 150 225" fill="none" xmlns="http://www.w3.org/2000/svg">
  <!-- 背景 -->
  <rect width="150" height="225" fill="#8B5CF6"/>
  
  <!-- 书本图标 -->
  <path d="M35 82.5C35 77.8056 38.8056 74 43.5 74H106.5C111.194 74 115 77.8056 115 82.5V142.5C115 147.194 111.194 151 106.5 151H43.5C38.8056 151 35 147.194 35 142.5V82.5Z" fill="white" fill-opacity="0.2"/>
  
  <!-- 大脑图标 -->
  <path d="M75 75 C60 75, 50 85, 50 95 C50 105, 55 110, 60 112 C60 117, 65 120, 70 120 C72 125, 78 125, 80 120 C85 120, 90 117, 90 112 C95 110, 100 105, 100 95 C100 85, 90 75, 75 75 Z" fill="white"/>
  
  <!-- 大脑纹路 -->
  <path d="M60 95 C65 90, 70 95, 75 90 C80 95, 85 90, 90 95" stroke="#8B5CF6" stroke-width="2" fill="none"/>
  <path d="M60 100 C65 105, 70 100, 75 105 C80 100, 85 105, 90 100" stroke="#8B5CF6" stroke-width="2" fill="none"/>
  <path d="M65 110 C70 105, 75 110, 80 105 C85 110, 90 105" stroke="#8B5CF6" stroke-width="2" fill="none"/>
  
  <!-- 思考气泡 -->
  <circle cx="55" cy="85" r="3" fill="#8B5CF6"/>
  <circle cx="50" cy="80" r="2" fill="#8B5CF6"/>
  <circle cx="47" cy="75" r="1.5" fill="#8B5CF6"/>
  
  <!-- 书本标题文本 -->
  <text x="75" y="170" font-family="Arial" font-size="16" font-weight="bold" fill="white" text-anchor="middle">思考，快与慢</text>
  <text x="75" y="190" font-family="Arial" font-size="12" fill="white" text-anchor="middle">丹尼尔·卡尼曼</text>
</svg> 