<?xml version="1.0" encoding="UTF-8"?>
<svg width="160" height="160" viewBox="0 0 160 160" fill="none" xmlns="http://www.w3.org/2000/svg">
  <!-- 书架背景 -->
  <rect x="20" y="20" width="120" height="120" rx="8" fill="white" fill-opacity="0.2"/>
  
  <!-- 书架层 -->
  <rect x="20" y="60" width="120" height="4" fill="white" fill-opacity="0.4"/>
  <rect x="20" y="100" width="120" height="4" fill="white" fill-opacity="0.4"/>
  <rect x="20" y="140" width="120" height="4" fill="white" fill-opacity="0.4"/>
  
  <!-- 书本1 - 蓝色 -->
  <rect x="30" y="30" width="15" height="30" fill="#60A5FA"/>
  <rect x="32" y="35" width="11" height="2" fill="white" fill-opacity="0.6"/>
  <rect x="32" y="40" width="11" height="2" fill="white" fill-opacity="0.6"/>
  
  <!-- 书本2 - 绿色 -->
  <rect x="48" y="25" width="18" height="35" fill="#34D399"/>
  <rect x="50" y="30" width="14" height="2" fill="white" fill-opacity="0.6"/>
  <rect x="50" y="35" width="14" height="2" fill="white" fill-opacity="0.6"/>
  
  <!-- 书本3 - 紫色 -->
  <rect x="70" y="28" width="12" height="32" fill="#A78BFA"/>
  <rect x="72" y="33" width="8" height="2" fill="white" fill-opacity="0.6"/>
  <rect x="72" y="38" width="8" height="2" fill="white" fill-opacity="0.6"/>
  
  <!-- 书本4 - 红色 -->
  <rect x="85" y="32" width="20" height="28" fill="#F87171"/>
  <rect x="87" y="37" width="16" height="2" fill="white" fill-opacity="0.6"/>
  <rect x="87" y="42" width="16" height="2" fill="white" fill-opacity="0.6"/>
  
  <!-- 书本5 - 黄色 -->
  <rect x="110" y="27" width="16" height="33" fill="#FBBF24"/>
  <rect x="112" y="32" width="12" height="2" fill="white" fill-opacity="0.6"/>
  <rect x="112" y="37" width="12" height="2" fill="white" fill-opacity="0.6"/>
  
  <!-- 书本6 - 粉色 -->
  <rect x="35" y="64" width="14" height="36" fill="#F472B6"/>
  <rect x="37" y="69" width="10" height="2" fill="white" fill-opacity="0.6"/>
  <rect x="37" y="74" width="10" height="2" fill="white" fill-opacity="0.6"/>
  
  <!-- 书本7 - 橙色 -->
  <rect x="55" y="70" width="18" height="30" fill="#FB923C"/>
  <rect x="57" y="75" width="14" height="2" fill="white" fill-opacity="0.6"/>
  <rect x="57" y="80" width="14" height="2" fill="white" fill-opacity="0.6"/>
  
  <!-- 书本8 - 青色 -->
  <rect x="80" y="65" width="22" height="35" fill="#22D3EE"/>
  <rect x="82" y="70" width="18" height="2" fill="white" fill-opacity="0.6"/>
  <rect x="82" y="75" width="18" height="2" fill="white" fill-opacity="0.6"/>
  
  <!-- 书本9 - 靛蓝色 -->
  <rect x="108" y="68" width="16" height="32" fill="#818CF8"/>
  <rect x="110" y="73" width="12" height="2" fill="white" fill-opacity="0.6"/>
  <rect x="110" y="78" width="12" height="2" fill="white" fill-opacity="0.6"/>
  
  <!-- 书本10 - 绿色 -->
  <rect x="40" y="104" width="20" height="36" fill="#10B981"/>
  <rect x="42" y="109" width="16" height="2" fill="white" fill-opacity="0.6"/>
  <rect x="42" y="114" width="16" height="2" fill="white" fill-opacity="0.6"/>
  
  <!-- 书本11 - 蓝色 -->
  <rect x="65" y="110" width="15" height="30" fill="#3B82F6"/>
  <rect x="67" y="115" width="11" height="2" fill="white" fill-opacity="0.6"/>
  <rect x="67" y="120" width="11" height="2" fill="white" fill-opacity="0.6"/>
  
  <!-- 书本12 - 紫色 -->
  <rect x="85" y="104" width="18" height="36" fill="#8B5CF6"/>
  <rect x="87" y="109" width="14" height="2" fill="white" fill-opacity="0.6"/>
  <rect x="87" y="114" width="14" height="2" fill="white" fill-opacity="0.6"/>
  
  <!-- 书本13 - 红色 -->
  <rect x="108" y="108" width="12" height="32" fill="#EF4444"/>
  <rect x="110" y="113" width="8" height="2" fill="white" fill-opacity="0.6"/>
  <rect x="110" y="118" width="8" height="2" fill="white" fill-opacity="0.6"/>
</svg> 