<?xml version="1.0" encoding="UTF-8"?>
<svg width="40" height="40" viewBox="0 0 40 40" fill="none" xmlns="http://www.w3.org/2000/svg">
  <!-- 背景 -->
  <rect width="40" height="40" rx="8" fill="#3B82F6"/>
  
  <!-- 书本图标 -->
  <path d="M10 12C10 10.8954 10.8954 10 12 10H28C29.1046 10 30 10.8954 30 12V28C30 29.1046 29.1046 30 28 30H12C10.8954 30 10 29.1046 10 28V12Z" fill="white" fill-opacity="0.2"/>
  
  <!-- 书页 -->
  <rect x="14" y="14" width="12" height="16" fill="white"/>
  
  <!-- 书脊 -->
  <rect x="12" y="14" width="2" height="16" fill="#3B82F6"/>
  
  <!-- 书签 -->
  <path d="M22 14L26 18H22V14Z" fill="#3B82F6"/>
  
  <!-- 文字线条 -->
  <rect x="16" y="18" width="8" height="1" fill="#3B82F6" fill-opacity="0.6"/>
  <rect x="16" y="21" width="8" height="1" fill="#3B82F6" fill-opacity="0.6"/>
  <rect x="16" y="24" width="6" height="1" fill="#3B82F6" fill-opacity="0.6"/>
</svg> 